<svg width="68" height="49" viewBox="0 0 68 49" fill="none" xmlns="http://www.w3.org/2000/svg">
<path d="M67.6749 42.2131C67.6749 43.6505 67.0237 44.9782 65.7213 46.1962C64.5387 47.3633 62.9442 48.0178 61.2827 48.0182C59.5896 48.0035 57.9638 47.3532 56.7277 46.1962C55.4523 44.9259 54.8146 43.5948 54.8146 42.2131V24.0285C54.8146 23.2542 54.8146 22.3938 54.7741 21.4524C54.7143 20.3247 54.505 19.2099 54.1516 18.1374C53.9991 17.3731 53.6879 16.6492 53.238 16.0128C52.7882 15.3764 52.2097 14.8415 51.54 14.4428C50.2551 13.6623 48.782 13.2459 47.2786 13.2382C46.058 13.2725 44.8686 13.6305 43.832 14.2757C42.5893 15.0342 41.6389 16.1897 41.1344 17.5553C40.6652 19.2005 40.4418 20.906 40.4714 22.6165V42.1119C40.4714 43.4986 39.8387 44.8246 38.5633 46.095C37.9872 46.7028 37.2924 47.1859 36.5219 47.5141C35.7514 47.8423 34.9217 48.0087 34.0842 48.003C32.3904 47.9874 30.7644 47.3352 29.5292 46.176C28.2606 44.9006 27.6246 43.5509 27.6212 42.1271V23.5528C27.6212 22.7784 27.6212 21.9433 27.5807 21.0576C27.4987 19.8581 27.2901 18.6705 26.9582 17.5149C26.5736 16.0471 25.4905 14.8375 23.7241 13.8962C22.6174 13.4157 21.4173 13.1886 20.2115 13.2315C19.0057 13.2744 17.8248 13.5862 16.755 14.1442C15.4796 14.7582 14.5669 15.978 14.0169 17.8033C13.5612 19.682 13.3386 21.6096 13.3539 23.5426V42.1018C13.3539 43.4885 12.7213 44.8196 11.456 46.095C10.8843 46.7016 10.1939 47.1841 9.42763 47.5124C8.66139 47.8406 7.83579 48.0077 7.00222 48.003C5.30747 47.9968 3.67871 47.3453 2.44722 46.181C1.18194 44.9157 0.549298 43.5594 0.549298 42.1321V20.921C0.492196 17.7965 1.08507 14.6942 2.29032 11.811C3.45438 9.15896 5.83311 6.64696 9.4265 4.27498C12.7763 1.98442 16.7357 0.750403 20.7938 0.732198C22.9855 0.706119 25.1594 1.12986 27.1809 1.97723L31.331 3.88527C31.994 4.21931 32.5052 4.49261 32.8493 4.7153C33.1935 4.93799 33.7198 5.29732 34.3677 5.79331C36.4287 4.17996 38.7379 2.9117 41.2052 2.03797C42.362 1.62125 43.5457 1.28307 44.748 1.02574C45.9322 0.800222 47.1361 0.695091 48.3414 0.711954C51.4388 0.711954 54.7015 1.59765 58.1296 3.36904C61.3891 4.95036 63.9951 7.61898 65.4986 10.9152C66.9663 14.1813 67.7002 18.1644 67.7002 22.8645L67.6749 42.2131Z" fill="white"/>
</svg>
