<svg width="152" height="12" viewBox="0 0 152 12" fill="none" xmlns="http://www.w3.org/2000/svg">
<path d="M0.549121 11.3549V0.962701H2.13764L6.68049 8.54898H5.84912L10.3177 0.962701H11.9063L11.9211 11.3549H10.0951L10.0802 3.82797H10.4662L6.66565 10.1672H5.80458L1.94464 3.82797H2.39002V11.3549H0.549121ZM19.1968 11.5033C17.7716 11.5033 16.6532 11.1025 15.8416 10.3008C15.0399 9.49912 14.6391 8.34113 14.6391 6.82685V0.962701H16.569V6.75262C16.569 7.82152 16.7967 8.59846 17.252 9.08343C17.7171 9.5684 18.3704 9.81088 19.2116 9.81088C20.0529 9.81088 20.7012 9.5684 21.1564 9.08343C21.6117 8.59846 21.8394 7.82152 21.8394 6.75262V0.962701H23.7396V6.82685C23.7396 8.34113 23.3338 9.49912 22.5223 10.3008C21.7206 11.1025 20.6121 11.5033 19.1968 11.5033ZM26.4425 11.3549V0.962701H28.031L34.5484 8.96466H33.7616V0.962701H35.6767V11.3549H34.0882L27.5708 3.3529H28.3577V11.3549H26.4425ZM41.6829 11.5033C40.8713 11.5033 40.0944 11.3895 39.3521 11.1619C38.6098 10.9243 38.0209 10.6225 37.5854 10.2563L38.2535 8.75682C38.6692 9.08343 39.1839 9.35561 39.7975 9.57335C40.4111 9.79109 41.0396 9.89996 41.6829 9.89996C42.2273 9.89996 42.6677 9.84057 43.0042 9.72181C43.3407 9.60304 43.5882 9.44468 43.7465 9.24674C43.9049 9.03889 43.984 8.80631 43.984 8.54898C43.984 8.23226 43.8702 7.97988 43.6426 7.79183C43.415 7.59389 43.118 7.44048 42.7518 7.33161C42.3955 7.21284 41.9947 7.10397 41.5493 7.005C41.1138 6.90603 40.6734 6.79221 40.228 6.66354C39.7925 6.52498 39.3917 6.35178 39.0255 6.14393C38.6692 5.92619 38.3772 5.63917 38.1496 5.28287C37.922 4.92657 37.8081 4.47129 37.8081 3.91704C37.8081 3.3529 37.9566 2.83824 38.2535 2.37307C38.5603 1.89799 39.0206 1.5219 39.6342 1.24477C40.2577 0.957752 41.0445 0.814241 41.9947 0.814241C42.6182 0.814241 43.2368 0.89342 43.8504 1.05178C44.4641 1.21013 44.9985 1.43777 45.4538 1.73469L44.8451 3.23413C44.3799 2.95701 43.8999 2.75411 43.4051 2.62545C42.9102 2.48688 42.4351 2.4176 41.9798 2.4176C41.4454 2.4176 41.0099 2.48193 40.6734 2.6106C40.3468 2.73926 40.1043 2.90752 39.946 3.11536C39.7975 3.32321 39.7233 3.56074 39.7233 3.82797C39.7233 4.14468 39.8321 4.40201 40.0499 4.59996C40.2775 4.788 40.5695 4.93646 40.9258 5.04533C41.292 5.1542 41.6978 5.26307 42.1431 5.37194C42.5885 5.47092 43.029 5.58474 43.4644 5.7134C43.9098 5.84207 44.3107 6.01032 44.667 6.21816C45.0332 6.42601 45.3251 6.70808 45.5429 7.06438C45.7705 7.42068 45.8843 7.87101 45.8843 8.41536C45.8843 8.96961 45.7309 9.48427 45.4241 9.95934C45.1272 10.4245 44.667 10.8006 44.0434 11.0876C43.4199 11.3648 42.6331 11.5033 41.6829 11.5033ZM54.0091 11.3549V2.59575H50.5649V0.962701H59.3833V2.59575H55.9391V11.3549H54.0091ZM60.8318 11.3549V0.962701H65.1074C66.0278 0.962701 66.8147 1.11116 67.4679 1.40808C68.131 1.705 68.6407 2.13058 68.997 2.68483C69.3533 3.23908 69.5315 3.89725 69.5315 4.65934C69.5315 5.42143 69.3533 6.0796 68.997 6.63385C68.6407 7.1782 68.131 7.59884 67.4679 7.89575C66.8147 8.18278 66.0278 8.32629 65.1074 8.32629H61.9007L62.7617 7.45038V11.3549H60.8318ZM67.6312 11.3549L65.0035 7.58399H67.067L69.7096 11.3549H67.6312ZM62.7617 7.65822L61.9007 6.73777H65.0183C65.8695 6.73777 66.5078 6.55467 66.9334 6.18847C67.3689 5.82227 67.5867 5.31256 67.5867 4.65934C67.5867 3.99622 67.3689 3.48651 66.9334 3.13021C66.5078 2.77391 65.8695 2.59575 65.0183 2.59575H61.9007L62.7617 1.64561V7.65822ZM70.221 11.3549L74.8975 0.962701H76.7977L81.4891 11.3549H79.47L75.4468 1.98707H76.2188L72.2104 11.3549H70.221ZM72.3737 8.94982L72.8933 7.43553H78.505L79.0246 8.94982H72.3737ZM86.0323 11.5033C85.2207 11.5033 84.4438 11.3895 83.7015 11.1619C82.9592 10.9243 82.3703 10.6225 81.9348 10.2563L82.6029 8.75682C83.0185 9.08343 83.5332 9.35561 84.1468 9.57335C84.7605 9.79109 85.3889 9.89996 86.0323 9.89996C86.5766 9.89996 87.0171 9.84057 87.3536 9.72181C87.6901 9.60304 87.9375 9.44468 88.0959 9.24674C88.2542 9.03889 88.3334 8.80631 88.3334 8.54898C88.3334 8.23226 88.2196 7.97988 87.9919 7.79183C87.7643 7.59389 87.4674 7.44048 87.1012 7.33161C86.7449 7.21284 86.344 7.10397 85.8987 7.005C85.4632 6.90603 85.0227 6.79221 84.5774 6.66354C84.1419 6.52498 83.741 6.35178 83.3748 6.14393C83.0185 5.92619 82.7266 5.63917 82.4989 5.28287C82.2713 4.92657 82.1575 4.47129 82.1575 3.91704C82.1575 3.3529 82.3059 2.83824 82.6029 2.37307C82.9097 1.89799 83.3699 1.5219 83.9835 1.24477C84.6071 0.957752 85.3939 0.814241 86.344 0.814241C86.9676 0.814241 87.5861 0.89342 88.1998 1.05178C88.8134 1.21013 89.3479 1.43777 89.8031 1.73469L89.1945 3.23413C88.7293 2.95701 88.2493 2.75411 87.7544 2.62545C87.2595 2.48688 86.7845 2.4176 86.3292 2.4176C85.7947 2.4176 85.3593 2.48193 85.0227 2.6106C84.6961 2.73926 84.4537 2.90752 84.2953 3.11536C84.1468 3.32321 84.0726 3.56074 84.0726 3.82797C84.0726 4.14468 84.1815 4.40201 84.3992 4.59996C84.6269 4.788 84.9188 4.93646 85.2751 5.04533C85.6413 5.1542 86.0471 5.26307 86.4925 5.37194C86.9379 5.47092 87.3783 5.58474 87.8138 5.7134C88.2592 5.84207 88.66 6.01032 89.0163 6.21816C89.3825 6.42601 89.6745 6.70808 89.8922 7.06438C90.1199 7.42068 90.2337 7.87101 90.2337 8.41536C90.2337 8.96961 90.0803 9.48427 89.7734 9.95934C89.4765 10.4245 89.0163 10.8006 88.3928 11.0876C87.7692 11.3648 86.9824 11.5033 86.0323 11.5033ZM99.4516 0.962701H101.382V11.3549H99.4516V0.962701ZM94.0774 11.3549H92.1474V0.962701H94.0774V11.3549ZM99.6001 6.90108H93.9141V5.25318H99.6001V6.90108ZM107.167 11.3549L102.624 0.962701H104.717L108.77 10.3602H107.568L111.665 0.962701H113.595L109.067 11.3549H107.167ZM112.889 11.3549L117.565 0.962701H119.465L124.157 11.3549H122.138L118.114 1.98707H118.886L114.878 11.3549H112.889ZM115.041 8.94982L115.561 7.43553H121.173L121.692 8.94982H115.041ZM125.478 11.3549V0.962701H127.408V9.72181H132.842V11.3549H125.478ZM136.147 5.28287H141.313V6.87138H136.147V5.28287ZM136.296 9.73665H142.16V11.3549H134.366V0.962701H141.952V2.58091H136.296V9.73665ZM146.419 11.3549V2.59575H142.975V0.962701H151.794V2.59575H148.349V11.3549H146.419Z" fill="#246BFD"/>
</svg>
