<svg width="42" height="30" viewBox="0 0 42 30" fill="none" xmlns="http://www.w3.org/2000/svg">
<path d="M41.0235 25.7969C41.0235 26.6753 40.6255 27.4867 39.8296 28.231C39.1069 28.9442 38.1325 29.3442 37.1171 29.3445C36.0825 29.3355 35.089 28.9381 34.3335 28.231C33.5541 27.4547 33.1644 26.6413 33.1644 25.7969V14.6841C33.1644 14.2109 33.1644 13.6851 33.1397 13.1098C33.1031 12.4207 32.9752 11.7394 32.7592 11.084C32.6661 10.6169 32.4759 10.1745 32.201 9.78561C31.9261 9.39668 31.5725 9.0698 31.1633 8.82614C30.378 8.34916 29.4778 8.09471 28.5591 8.09003C27.8132 8.11096 27.0863 8.32978 26.4528 8.72407C25.6934 9.18758 25.1126 9.89372 24.8043 10.7283C24.5176 11.7336 24.381 12.7759 24.3991 13.8212V25.735C24.3991 26.5825 24.0125 27.3928 23.2331 28.1692C22.881 28.5406 22.4564 28.8358 21.9856 29.0364C21.5147 29.237 21.0077 29.3387 20.4959 29.3352C19.4607 29.3257 18.4671 28.9271 17.7123 28.2186C16.937 27.4392 16.5483 26.6145 16.5462 25.7443V14.3934C16.5462 13.9202 16.5462 13.4098 16.5215 12.8686C16.4714 12.1355 16.3439 11.4098 16.1411 10.7035C15.906 9.80659 15.2441 9.06738 14.1647 8.4921C13.4884 8.19849 12.755 8.05972 12.0181 8.08594C11.2812 8.11216 10.5595 8.30271 9.90578 8.64366C9.12637 9.01893 8.56861 9.76432 8.23252 10.8798C7.95405 12.0279 7.81797 13.2059 7.82735 14.3872V25.7289C7.82735 26.5763 7.44074 27.3897 6.66751 28.1692C6.31814 28.5399 5.8962 28.8347 5.42795 29.0353C4.95969 29.236 4.45516 29.338 3.94575 29.3352C2.91007 29.3314 1.91472 28.9333 1.16214 28.2217C0.388914 27.4485 0.00230118 26.6196 0.00230118 25.7474V12.7851C-0.0325944 10.8756 0.32972 8.97981 1.06626 7.21783C1.77763 5.59715 3.2313 4.06203 5.42726 2.61249C7.47436 1.21271 9.89401 0.458586 12.3739 0.447461C13.7133 0.431524 15.0418 0.690478 16.2772 1.20832L18.8133 2.37434C19.2185 2.57847 19.5309 2.74549 19.7412 2.88158C19.9515 3.01766 20.2732 3.23726 20.6691 3.54036C21.9286 2.55442 23.3398 1.77938 24.8476 1.24543C25.5545 0.990769 26.2779 0.784106 27.0126 0.62685C27.7363 0.489032 28.472 0.424784 29.2086 0.43509C31.1014 0.43509 33.0953 0.976348 35.1903 2.05886C37.1822 3.02523 38.7748 4.65605 39.6935 6.67038C40.5905 8.66634 41.039 11.1005 41.039 13.9727L41.0235 25.7969Z" fill="#246BFD"/>
</svg>
